<svg width="28" height="28" viewBox="0 0 28 28" fill="none" xmlns="http://www.w3.org/2000/svg">
<g clip-path="url(#clip0_1_6725)">
<path d="M8.25823 27.4757C7.70619 27.1084 7.21692 26.6546 6.80923 26.1317C6.36079 25.592 5.94528 25.0257 5.56499 24.4359C4.67256 23.1285 3.9727 21.6996 3.48687 20.1931C2.90324 18.4431 2.62062 16.7657 2.62062 15.1251C2.62062 13.2928 3.01699 11.6934 3.79224 10.3494C4.36692 9.29887 5.21185 8.42101 6.23961 7.80661C7.23563 7.18796 8.38007 6.8494 9.55235 6.82661C9.96273 6.82661 10.4046 6.88611 10.8736 6.99986C11.2105 7.09524 11.6208 7.24574 12.1222 7.43299C12.7601 7.67886 13.111 7.82936 13.23 7.86611C13.6036 8.00261 13.9177 8.06211 14.1645 8.06211C14.3517 8.06211 14.616 8.00261 14.9161 7.91161C15.085 7.85211 15.4035 7.74711 15.8593 7.55198C16.3108 7.38749 16.6661 7.24661 16.9487 7.14161C17.3818 7.01386 17.801 6.89574 18.1746 6.83624C18.6175 6.76641 19.067 6.74791 19.5142 6.78111C20.2891 6.83176 21.0524 6.99597 21.7796 7.26849C22.9687 7.74711 23.9303 8.49436 24.6461 9.55661C24.3435 9.74306 24.0596 9.95813 23.7982 10.1989C23.2291 10.7034 22.7444 11.2956 22.3623 11.9532C21.863 12.8519 21.6041 13.8643 21.6107 14.8923C21.6291 16.155 21.9528 17.2671 22.5907 18.2287C23.0597 18.9414 23.6691 19.5509 24.3818 20.0198C24.7467 20.2657 25.0608 20.4346 25.3618 20.5483C25.2209 20.9858 25.0704 21.4093 24.8928 21.8293C24.49 22.7712 24.0017 23.6742 23.4342 24.5269C22.9284 25.2611 22.5321 25.8079 22.2311 26.1719C21.7621 26.7276 21.3106 27.1519 20.8547 27.4477C20.3533 27.7802 19.761 27.9578 19.159 27.9578C18.7513 27.9735 18.3437 27.9241 17.9515 27.8117C17.6146 27.6979 17.2812 27.5746 16.9531 27.4337C16.612 27.277 16.2602 27.1446 15.9005 27.0373C15.0112 26.8089 14.0788 26.8074 13.1888 27.0329C12.824 27.1379 12.4731 27.2604 12.1266 27.4109C11.6392 27.6157 11.3155 27.7531 11.1282 27.8117C10.7546 27.9211 10.367 27.9893 9.97498 28.0121C9.3686 28.0121 8.80335 27.8388 8.24336 27.4879L8.25823 27.4757ZM16.2557 5.93761C15.463 6.33399 14.7061 6.50286 13.9545 6.44774C13.8363 5.69086 13.9545 4.91649 14.2686 4.06862C14.536 3.3503 14.9312 2.68628 15.435 2.10862C15.967 1.50052 16.6125 1.00208 17.3355 0.641249C18.1055 0.244875 18.8396 0.0305003 19.5413 -0.000999616C19.6323 0.791749 19.5413 1.57137 19.25 2.414C18.9803 3.15887 18.5859 3.85243 18.0836 4.46499C17.5709 5.07393 16.9417 5.5743 16.233 5.93674L16.2557 5.93761Z" fill="black"/>
</g>
<defs>
<clipPath id="clip0_1_6725">
<rect width="27.3542" height="27.3542" fill="white" transform="scale(1.02361)"/>
</clipPath>
</defs>
</svg>
