<svg width="110" height="110" viewBox="0 0 110 110" fill="none" xmlns="http://www.w3.org/2000/svg">
<path d="M106.128 54.9989C107.827 53.0206 109.017 50.6577 109.596 48.1152C110.175 45.5726 110.125 42.9273 109.45 40.4085C108.775 37.8898 107.495 35.5738 105.723 33.6614C103.95 31.749 101.738 30.298 99.2771 29.4343C99.7592 26.8715 99.6087 24.2298 98.8387 21.7384C98.0686 19.247 96.7023 16.9811 94.8583 15.1373C93.0142 13.2935 90.7482 11.9275 88.2566 11.1577C85.7651 10.388 83.1234 10.2378 80.5607 10.7203C79.6977 8.2593 78.2469 6.0462 76.3345 4.2731C74.4221 2.5 72.1058 1.22051 69.5867 0.545694C67.0676 -0.129118 64.4219 -0.178845 61.8792 0.40083C59.3365 0.980504 56.9738 2.17206 54.9961 3.87204C53.0178 2.17323 50.6549 0.982747 48.1124 0.403874C45.5699 -0.175 42.9245 -0.124782 40.4057 0.550168C37.887 1.22512 35.571 2.50442 33.6586 4.27708C31.7462 6.04975 30.2952 8.26225 29.4315 10.7226C26.8689 10.241 24.2275 10.3919 21.7364 11.1621C19.2453 11.9323 16.9797 13.2987 15.1362 15.1427C13.2927 16.9867 11.9269 19.2526 11.1573 21.7439C10.3877 24.2351 10.2376 26.8766 10.7199 29.439C8.25946 30.3028 6.04695 31.7538 4.27428 33.6662C2.50161 35.5785 1.22231 37.8946 0.54736 40.4133C-0.12759 42.932 -0.177815 45.5774 0.401059 48.1199C0.979933 50.6625 2.17044 53.0254 3.86925 55.0037C2.16992 56.9819 0.97905 59.345 0.400011 61.8878C-0.179027 64.4306 -0.128758 67.0763 0.546487 69.5952C1.22173 72.1142 2.50153 74.4303 4.27481 76.3425C6.04808 78.2547 8.26127 79.7053 10.7222 80.5683C10.2395 83.1308 10.3895 85.7724 11.1592 88.2639C11.9289 90.7553 13.2951 93.0212 15.139 94.8649C16.983 96.7087 19.2491 98.0745 21.7406 98.8439C24.2321 99.6133 26.8738 99.7629 29.4363 99.2799C30.3 101.74 31.751 103.953 33.6634 105.725C35.5757 107.498 37.8918 108.777 40.4105 109.452C42.9292 110.127 45.5746 110.178 48.1171 109.599C50.6597 109.02 53.0226 107.829 55.0009 106.131C56.9791 107.83 59.3422 109.021 61.885 109.6C64.4278 110.179 67.0734 110.129 69.5924 109.453C72.1114 108.778 74.4275 107.498 76.3397 105.725C78.2519 103.952 79.7025 101.738 80.5655 99.2775C83.1281 99.7601 85.7698 99.61 88.2612 98.8403C90.7527 98.0706 93.0187 96.7045 94.8626 94.8606C96.7065 93.0167 98.0726 90.7507 98.8423 88.2593C99.612 85.7678 99.762 83.1261 99.2795 80.5635C101.74 79.7 103.953 78.249 105.726 76.3366C107.498 74.4241 108.778 72.1079 109.452 69.589C110.127 67.0701 110.177 64.4246 109.598 61.8821C109.018 59.3395 107.827 56.9768 106.128 54.9989Z" fill="#18C07A"/>
<path d="M45.1257 75.9939L29.8418 60.7195C29.2617 60.1385 28.9359 59.3511 28.9359 58.5301C28.9359 57.7092 29.2617 56.9218 29.8418 56.3408L31.6987 54.4815C32.2796 53.9015 33.067 53.5757 33.888 53.5757C34.709 53.5757 35.4964 53.9015 36.0774 54.4815L47.1876 65.5846L73.3529 37.7793C73.9159 37.1819 74.693 36.8324 75.5135 36.8073C76.334 36.7823 77.1309 37.0839 77.7293 37.6458L79.6362 39.4455C80.2343 40.0086 80.5843 40.7861 80.6094 41.6072C80.6344 42.4283 80.3324 43.2257 79.7697 43.8242L49.5784 75.9248C49.2941 76.2278 48.9518 76.4705 48.5719 76.6385C48.192 76.8065 47.7821 76.8965 47.3667 76.9029C46.9513 76.9094 46.5389 76.8322 46.1539 76.6761C45.7689 76.5199 45.4193 76.2879 45.1257 75.9939Z" fill="white"/>
</svg>
