<svg width="80" height="80" viewBox="0 0 80 80" fill="none" xmlns="http://www.w3.org/2000/svg">
<path d="M79.9998 39.9999C79.9998 62.0913 62.0913 79.9998 39.9999 79.9998C17.9086 79.9998 0 62.0913 0 39.9999C0 17.9086 17.9086 0 39.9999 0C62.0913 0 79.9998 17.9086 79.9998 39.9999ZM2.43599 39.9999C2.43599 60.7459 19.2539 77.5638 39.9999 77.5638C60.7459 77.5638 77.5638 60.7459 77.5638 39.9999C77.5638 19.2539 60.7459 2.43599 39.9999 2.43599C19.2539 2.43599 2.43599 19.2539 2.43599 39.9999Z" fill="#FFE07F"/>
<path d="M6.88145 19.8209C6.307 19.4709 5.55582 19.652 5.22346 20.2368C1.88409 26.1129 0.0847376 32.7458 0.00299173 39.5172C-0.0836593 46.695 1.76285 53.7639 5.34883 59.9823C8.93481 66.2008 14.1281 71.3396 20.384 74.8599C26.2857 78.1808 32.9278 79.9458 39.6863 79.9988C40.359 80.0041 40.892 79.4446 40.8767 78.7721C40.8615 78.0996 40.3039 77.5688 39.6313 77.5622C33.31 77.5002 27.0993 75.8435 21.5786 72.7369C15.7037 69.4311 10.8267 64.6052 7.45908 58.7654C4.09149 52.9257 2.35743 46.2873 2.43881 39.5467C2.51528 33.2124 4.19221 27.0072 7.30478 21.5049C7.63599 20.9194 7.4559 20.1709 6.88145 19.8209Z" fill="#263238"/>
<circle cx="40" cy="40" r="29.5652" fill="#FFC100"/>
<path d="M34.4202 40L45.5796 40" stroke="white" stroke-width="1.73305" stroke-linecap="round" stroke-linejoin="round"/>
<path d="M39.9998 34.4201L45.5795 39.9998L39.9998 45.5795" stroke="white" stroke-width="1.73305" stroke-linecap="round" stroke-linejoin="round"/>
</svg>
