<svg width="28" height="28" viewBox="0 0 28 28" fill="none" xmlns="http://www.w3.org/2000/svg">
<path d="M6.91401 16.6552L6.02798 19.9629L2.78954 20.0314C1.82172 18.2363 1.27276 16.1825 1.27276 14C1.27276 11.8895 1.78603 9.8993 2.69583 8.14687H2.69652L5.57964 8.67545L6.84262 11.5413C6.57828 12.3119 6.43421 13.1392 6.43421 14C6.43431 14.9343 6.60354 15.8294 6.91401 16.6552Z" fill="#FBBB00"/>
<path d="M26.5048 11.622C26.651 12.3919 26.7272 13.187 26.7272 13.9996C26.7272 14.9108 26.6314 15.7997 26.4489 16.657C25.8293 19.5745 24.2105 22.122 21.9678 23.9248L21.9671 23.9241L18.3357 23.7388L17.8217 20.5304C19.3098 19.6577 20.4728 18.292 21.0854 16.657H14.2798V11.622H21.1846H26.5048Z" fill="#518EF8"/>
<path d="M21.9671 23.9243L21.9678 23.925C19.7867 25.6781 17.0161 26.7271 14 26.7271C9.15318 26.7271 4.93922 24.018 2.78955 20.0313L6.91403 16.6551C7.98883 19.5236 10.756 21.5656 14 21.5656C15.3944 21.5656 16.7007 21.1886 17.8217 20.5306L21.9671 23.9243Z" fill="#28B446"/>
<path d="M22.1238 4.20256L18.0007 7.57807C16.8406 6.85291 15.4692 6.43401 14 6.43401C10.6825 6.43401 7.86365 8.56965 6.84269 11.541L2.69654 8.14662H2.69584C4.81403 4.06271 9.08114 1.27251 14 1.27251C17.0881 1.27251 19.9196 2.37252 22.1238 4.20256Z" fill="#F14336"/>
</svg>
